<svg width="854" height="68" viewBox="0 0 854 68" fill="none" xmlns="http://www.w3.org/2000/svg">
<path d="M1 32.7207C1 32.7207 93.3 -38.8069 196 32.7207" stroke="#C2CBDE" stroke-width="1.5" stroke-dasharray="5 5"/>
<path d="M181.219 39.4988C181.219 39.4988 200.334 45.0252 202.156 38.7642C203.978 32.5031 202.611 26.0287 196.694 17.1587" stroke="#C2CBDE" stroke-width="1.5" stroke-dasharray="4 4"/>
<path d="M651 32.7207C651 32.7207 743.3 -38.8069 846 32.7207" stroke="#C2CBDE" stroke-width="1.5" stroke-dasharray="5 5"/>
<path d="M831.219 39.4988C831.219 39.4988 850.334 45.0252 852.156 38.7642C853.978 32.5031 852.611 26.0287 846.694 17.1587" stroke="#C2CBDE" stroke-width="1.5" stroke-dasharray="4 4"/>
<path d="M331.481 35.2583C331.481 35.2583 423.781 106.786 526.481 35.2583" stroke="#C2CBDE" stroke-width="1.5" stroke-dasharray="5 5"/>
<path d="M511.7 28.4758C511.7 28.4758 530.816 22.9495 532.638 29.2104C534.46 35.4713 533.093 41.9456 527.176 50.8154" stroke="#C2CBDE" stroke-width="1.5" stroke-dasharray="4 4"/>
</svg>
