<svg width="381" height="25" viewBox="0 0 381 25" fill="none" xmlns="http://www.w3.org/2000/svg">
<g clip-path="url(#clip0_1_436)">
<path d="M379.109 7.91466C379.455 8.11227 379.711 8.35288 379.857 8.61754C380.003 8.88219 380.034 9.16363 379.949 9.43962C379.858 10.1809 379.34 10.534 378.023 10.5601C375.011 10.6203 371.999 10.6476 368.986 10.6418C357.861 10.6262 346.743 10.8943 335.623 11.2839C325.782 11.6289 315.94 11.9596 306.095 12.2342C290.459 12.6703 274.822 13.0594 259.185 13.4618C253.395 13.61 247.603 13.7337 241.818 13.8797C241.121 13.8959 240.432 13.9865 239.791 14.1467L325.042 14.7939C325.604 15.0599 325.96 15.4359 326.037 15.8473C326.114 16.2587 325.908 16.6752 325.459 17.0141C322.136 17.2065 318.8 17.2914 315.469 17.2683C306.441 17.2487 297.414 17.1883 288.383 17.1627C280.739 17.1421 273.094 17.1553 265.451 17.1419C252.597 17.1183 239.744 17.0865 226.891 17.0465C219.711 17.0201 212.534 16.9569 205.357 16.8938C198.531 16.8282 191.71 16.6747 184.882 16.6663C170.058 16.6473 155.233 16.6665 140.407 16.7238C129.871 16.765 119.317 16.9057 108.773 16.9767C103.214 17.0137 97.6534 16.9957 92.0951 17.0021C91.7475 17.0128 91.3996 17.0097 91.0542 16.9926C90.59 16.9595 90.1709 16.8296 89.8819 16.6292C89.593 16.4288 89.456 16.173 89.4988 15.9139C89.6114 15.4496 89.775 14.9888 89.9887 14.5341C92.718 14.2204 95.4809 14.0207 98.2535 13.9368C106.467 13.5497 114.683 13.1918 122.902 12.863C129.736 12.5935 136.57 12.3261 143.406 12.178C154.759 11.9355 166.115 11.7695 177.468 11.5996C191.837 11.3845 206.206 11.2125 220.575 10.9923C232.155 10.8134 243.737 10.5916 255.313 10.3841C255.704 10.356 256.091 10.3136 256.473 10.2572C255.291 9.93112 253.944 9.8193 252.62 9.93724C243.697 10.0237 234.775 10.1121 225.854 10.2026C214.619 10.3125 203.384 10.4228 192.15 10.5334C179.873 10.6595 167.595 10.7944 155.317 10.9382C145.472 11.0464 135.625 11.2189 125.783 11.2698C113.967 11.3302 102.153 11.3211 90.3409 11.2896C80.2661 11.2637 70.1935 11.196 60.1232 11.0864C48.6709 10.9573 37.2273 10.7146 25.7734 10.5947C18.3778 10.5199 10.9595 10.5833 3.55079 10.5853C3.31983 10.5903 3.08717 10.6024 2.85606 10.6002C1.57699 10.604 1.06176 10.4547 0.938513 10.0499C0.815262 9.64513 1.31721 9.34644 2.51452 9.23611C3.77444 9.11149 5.04364 9.0237 6.31677 8.97313C9.55859 8.86713 12.8039 8.75391 16.0456 8.72654C25.8906 8.64186 35.7358 8.56024 45.5769 8.54815C54.2645 8.53822 62.9457 8.65915 71.6427 8.6572C85.3048 8.65437 98.9683 8.63518 112.632 8.55164C123.519 8.48557 134.408 8.31528 145.295 8.18895C158.841 8.03101 172.386 7.87276 185.931 7.71416C200.99 7.54364 216.053 7.3577 231.108 7.22505C245.823 7.09525 260.537 6.99781 275.251 6.9327C286.602 6.87612 297.952 6.82668 309.3 6.84775C321.458 6.86888 333.615 6.91864 345.764 7.06453C356.059 7.18876 366.343 7.46333 376.629 7.68782C377.465 7.73423 378.293 7.81001 379.109 7.91466ZM260.976 10.2458L260.964 10.144L259.924 10.1662L259.927 10.2917L260.976 10.2458Z" fill="#EF9E48"/>
</g>
<defs>
<clipPath id="clip0_1_436">
<rect width="379" height="15" fill="white" transform="translate(0.882812 9.04834) rotate(-1.22357)"/>
</clipPath>
</defs>
</svg>
